<svg id="visual" viewBox="0 0 900 600" width="900" height="600" xmlns="http://www.w3.org/2000/svg" xmlns:xlink="http://www.w3.org/1999/xlink" version="1.1"><g stroke-width="1" stroke-linejoin="bevel"><path d="M510 295L567 238L530 186Z" fill="#461868" stroke="#461868"></path><path d="M530 186L408 201L510 295Z" fill="#260c33" stroke="#260c33"></path><path d="M510 295L627 311L567 238Z" fill="#1f0827" stroke="#1f0827"></path><path d="M567 238L632 94L530 186Z" fill="#461868" stroke="#461868"></path><path d="M510 295L598 368L627 311Z" fill="#36124c" stroke="#36124c"></path><path d="M371 330L506 400L510 295Z" fill="#1f0827" stroke="#1f0827"></path><path d="M510 295L506 400L598 368Z" fill="#552086" stroke="#552086"></path><path d="M408 201L371 330L510 295Z" fill="#5c2496" stroke="#5c2496"></path><path d="M727 402L680 294L627 311Z" fill="#2e0f3f" stroke="#2e0f3f"></path><path d="M627 311L680 294L567 238Z" fill="#461868" stroke="#461868"></path><path d="M632 94L500 61L530 186Z" fill="#552086" stroke="#552086"></path><path d="M530 186L411 84L408 201Z" fill="#18001c" stroke="#18001c"></path><path d="M500 61L411 84L530 186Z" fill="#461868" stroke="#461868"></path><path d="M408 201L305 271L371 330Z" fill="#4e1c77" stroke="#4e1c77"></path><path d="M725 218L632 94L567 238Z" fill="#5c2496" stroke="#5c2496"></path><path d="M371 330L374 390L506 400Z" fill="#260c33" stroke="#260c33"></path><path d="M411 84L332 134L408 201Z" fill="#461868" stroke="#461868"></path><path d="M371 330L299 399L374 390Z" fill="#1f0827" stroke="#1f0827"></path><path d="M292 166L305 271L408 201Z" fill="#18001c" stroke="#18001c"></path><path d="M680 294L725 218L567 238Z" fill="#552086" stroke="#552086"></path><path d="M332 134L292 166L408 201Z" fill="#461868" stroke="#461868"></path><path d="M564 0L518 0L500 61Z" fill="#1f0827" stroke="#1f0827"></path><path d="M500 61L362 0L411 84Z" fill="#260c33" stroke="#260c33"></path><path d="M411 84L328 0L332 134Z" fill="#3e155a" stroke="#3e155a"></path><path d="M725 218L672 62L632 94Z" fill="#3e155a" stroke="#3e155a"></path><path d="M632 94L564 0L500 61Z" fill="#1f0827" stroke="#1f0827"></path><path d="M672 62L564 0L632 94Z" fill="#36124c" stroke="#36124c"></path><path d="M415 529L536 498L506 400Z" fill="#2e0f3f" stroke="#2e0f3f"></path><path d="M506 400L536 498L598 368Z" fill="#4e1c77" stroke="#4e1c77"></path><path d="M598 368L727 402L627 311Z" fill="#461868" stroke="#461868"></path><path d="M176 271L299 399L305 271Z" fill="#260c33" stroke="#260c33"></path><path d="M305 271L299 399L371 330Z" fill="#260c33" stroke="#260c33"></path><path d="M374 390L415 529L506 400Z" fill="#1f0827" stroke="#1f0827"></path><path d="M592 507L727 402L598 368Z" fill="#2e0f3f" stroke="#2e0f3f"></path><path d="M680 294L792 293L725 218Z" fill="#6329a6" stroke="#6329a6"></path><path d="M536 498L592 507L598 368Z" fill="#552086" stroke="#552086"></path><path d="M518 0L362 0L500 61Z" fill="#461868" stroke="#461868"></path><path d="M332 134L220 95L292 166Z" fill="#3e155a" stroke="#3e155a"></path><path d="M727 402L792 293L680 294Z" fill="#552086" stroke="#552086"></path><path d="M725 218L785 91L672 62Z" fill="#36124c" stroke="#36124c"></path><path d="M220 95L228 187L292 166Z" fill="#260c33" stroke="#260c33"></path><path d="M292 166L228 187L305 271Z" fill="#5c2496" stroke="#5c2496"></path><path d="M792 293L806 183L725 218Z" fill="#260c33" stroke="#260c33"></path><path d="M362 0L328 0L411 84Z" fill="#260c33" stroke="#260c33"></path><path d="M299 399L415 529L374 390Z" fill="#4e1c77" stroke="#4e1c77"></path><path d="M536 498L607 600L592 507Z" fill="#18001c" stroke="#18001c"></path><path d="M806 183L785 91L725 218Z" fill="#461868" stroke="#461868"></path><path d="M672 62L739 0L564 0Z" fill="#4e1c77" stroke="#4e1c77"></path><path d="M328 0L220 95L332 134Z" fill="#36124c" stroke="#36124c"></path><path d="M785 91L739 0L672 62Z" fill="#18001c" stroke="#18001c"></path><path d="M228 187L176 271L305 271Z" fill="#18001c" stroke="#18001c"></path><path d="M299 399L265 518L415 529Z" fill="#1f0827" stroke="#1f0827"></path><path d="M90 191L176 271L228 187Z" fill="#36124c" stroke="#36124c"></path><path d="M592 507L730 502L727 402Z" fill="#36124c" stroke="#36124c"></path><path d="M727 402L805 439L792 293Z" fill="#6329a6" stroke="#6329a6"></path><path d="M714 600L730 502L592 507Z" fill="#36124c" stroke="#36124c"></path><path d="M785 91L760 0L739 0Z" fill="#3e155a" stroke="#3e155a"></path><path d="M730 502L776 473L727 402Z" fill="#6329a6" stroke="#6329a6"></path><path d="M792 293L900 293L806 183Z" fill="#18001c" stroke="#18001c"></path><path d="M776 473L805 439L727 402Z" fill="#5c2496" stroke="#5c2496"></path><path d="M328 0L238 0L220 95Z" fill="#36124c" stroke="#36124c"></path><path d="M220 95L90 191L228 187Z" fill="#3e155a" stroke="#3e155a"></path><path d="M367 600L478 600L415 529Z" fill="#1f0827" stroke="#1f0827"></path><path d="M415 529L478 600L536 498Z" fill="#36124c" stroke="#36124c"></path><path d="M176 271L182 400L299 399Z" fill="#461868" stroke="#461868"></path><path d="M194 467L265 518L299 399Z" fill="#461868" stroke="#461868"></path><path d="M478 600L607 600L536 498Z" fill="#260c33" stroke="#260c33"></path><path d="M730 502L761 600L776 473Z" fill="#36124c" stroke="#36124c"></path><path d="M265 518L367 600L415 529Z" fill="#552086" stroke="#552086"></path><path d="M182 400L194 467L299 399Z" fill="#2e0f3f" stroke="#2e0f3f"></path><path d="M265 518L310 600L367 600Z" fill="#461868" stroke="#461868"></path><path d="M805 439L900 293L792 293Z" fill="#18001c" stroke="#18001c"></path><path d="M806 183L900 92L785 91Z" fill="#1f0827" stroke="#1f0827"></path><path d="M785 91L900 0L760 0Z" fill="#461868" stroke="#461868"></path><path d="M900 293L900 169L806 183Z" fill="#18001c" stroke="#18001c"></path><path d="M212 600L310 600L265 518Z" fill="#18001c" stroke="#18001c"></path><path d="M900 513L900 439L805 439Z" fill="#4e1c77" stroke="#4e1c77"></path><path d="M805 439L900 439L900 293Z" fill="#2e0f3f" stroke="#2e0f3f"></path><path d="M607 600L714 600L592 507Z" fill="#1f0827" stroke="#1f0827"></path><path d="M900 169L900 92L806 183Z" fill="#6329a6" stroke="#6329a6"></path><path d="M78 70L90 191L220 95Z" fill="#461868" stroke="#461868"></path><path d="M176 271L98 387L182 400Z" fill="#18001c" stroke="#18001c"></path><path d="M182 400L112 475L194 467Z" fill="#3e155a" stroke="#3e155a"></path><path d="M900 513L805 439L776 473Z" fill="#461868" stroke="#461868"></path><path d="M60 309L98 387L176 271Z" fill="#2e0f3f" stroke="#2e0f3f"></path><path d="M194 467L212 600L265 518Z" fill="#260c33" stroke="#260c33"></path><path d="M714 600L761 600L730 502Z" fill="#461868" stroke="#461868"></path><path d="M90 191L60 309L176 271Z" fill="#18001c" stroke="#18001c"></path><path d="M900 92L900 0L785 91Z" fill="#18001c" stroke="#18001c"></path><path d="M238 0L117 0L220 95Z" fill="#3e155a" stroke="#3e155a"></path><path d="M90 191L0 201L60 309Z" fill="#36124c" stroke="#36124c"></path><path d="M0 372L112 475L98 387Z" fill="#18001c" stroke="#18001c"></path><path d="M98 387L112 475L182 400Z" fill="#1f0827" stroke="#1f0827"></path><path d="M117 0L78 70L220 95Z" fill="#6329a6" stroke="#6329a6"></path><path d="M112 475L212 600L194 467Z" fill="#2e0f3f" stroke="#2e0f3f"></path><path d="M761 600L900 513L776 473Z" fill="#260c33" stroke="#260c33"></path><path d="M0 61L0 201L78 70Z" fill="#36124c" stroke="#36124c"></path><path d="M78 70L0 201L90 191Z" fill="#260c33" stroke="#260c33"></path><path d="M60 309L0 372L98 387Z" fill="#1f0827" stroke="#1f0827"></path><path d="M0 201L0 287L60 309Z" fill="#552086" stroke="#552086"></path><path d="M0 287L0 372L60 309Z" fill="#461868" stroke="#461868"></path><path d="M112 475L62 600L212 600Z" fill="#18001c" stroke="#18001c"></path><path d="M761 600L900 600L900 513Z" fill="#2e0f3f" stroke="#2e0f3f"></path><path d="M0 0L0 61L78 70Z" fill="#461868" stroke="#461868"></path><path d="M117 0L0 0L78 70Z" fill="#3e155a" stroke="#3e155a"></path><path d="M0 511L62 600L112 475Z" fill="#6329a6" stroke="#6329a6"></path><path d="M0 372L0 511L112 475Z" fill="#6329a6" stroke="#6329a6"></path><path d="M0 511L0 600L62 600Z" fill="#4e1c77" stroke="#4e1c77"></path></g></svg>